<svg xmlns="http://www.w3.org/2000/svg" x="0px" y="0px" width="100" height="100" viewBox="0,0,256,256">
<g fill="#ffffff" fill-rule="nonzero" stroke="none" stroke-width="1" stroke-linecap="butt" stroke-linejoin="miter" stroke-miterlimit="10" stroke-dasharray="" stroke-dashoffset="0" font-family="none" font-weight="none" font-size="none" text-anchor="none" style="mix-blend-mode: normal"><g transform="scale(5.12,5.12)"><path d="M34.19922,5.59961c-5.94321,0 -10.79883,4.85757 -10.79883,10.80078c0,0.38474 0.02939,0.74921 0.07227,1.10938c-7.33089,-0.69554 -13.91346,-4.44227 -18.4043,-9.84961c-0.19515,-0.23405 -0.48636,-0.36635 -0.79102,-0.35937c-0.35078,0.00799 -0.67171,0.19922 -0.8457,0.50391c-0.88396,1.54693 -1.43164,3.40935 -1.43164,5.39453c0,2.36319 0.81804,4.51583 2.12305,6.3125c-0.24726,-0.10107 -0.53406,-0.08637 -0.77539,-0.20703c-0.31001,-0.15497 -0.67816,-0.13838 -0.97298,0.04385c-0.29482,0.18222 -0.47427,0.5041 -0.47429,0.85069v0.10156c0,3.70069 1.90735,6.85492 4.71484,8.82813c-0.05153,-0.0082 -0.09993,-0.00719 -0.15039,-0.01562c-0.34599,-0.0577 -0.69692,0.07009 -0.9248,0.33675c-0.22788,0.26666 -0.2994,0.63322 -0.18848,0.96599c1.16074,3.48222 4.00113,6.24654 7.57422,7.16016c-2.81247,1.6472 -6.04231,2.62305 -9.52539,2.62305c-0.8,0 -1.5638,-0.0049 -2.1582,-0.08984c-0.46677,-0.06769 -0.9174,0.19994 -1.0813,0.6422c-0.16391,0.44226 0.00346,0.93892 0.40161,1.19178c4.54971,2.89527 9.84624,4.55664 15.63672,4.55664c9.32624,0 16.63103,-3.89441 21.53906,-9.46289c4.90803,-5.56848 7.46094,-12.78326 7.46094,-19.53711v-0.84766c1.81089,-1.39786 3.46212,-3.04448 4.73828,-5.00781c0.24112,-0.37124 0.2095,-0.85683 -0.07774,-1.19367c-0.28723,-0.33684 -0.76173,-0.44477 -1.1664,-0.26532c-0.528,0.23466 -1.13861,0.28883 -1.6875,0.47266c0.69524,-0.93819 1.29552,-1.95167 1.64648,-3.05469c0.1244,-0.39332 -0.00546,-0.82266 -0.327,-1.0811c-0.32153,-0.25844 -0.76876,-0.29294 -1.12613,-0.08687c-1.69931,0.98381 -3.58625,1.69478 -5.64062,2.17773c-1.95132,-1.81118 -4.52004,-3.01367 -7.35937,-3.01367zM34.19922,7.59961c2.51429,0 4.86069,1.08548 6.47461,2.78906c0.24093,0.25421 0.59729,0.36386 0.93945,0.28906c1.32135,-0.28725 2.56957,-0.69327 3.77148,-1.17383c-0.69583,0.92951 -1.52981,1.75578 -2.5,2.33789c-0.41125,0.24497 -0.59125,0.747 -0.42934,1.19747c0.1619,0.45047 0.6203,0.72305 1.09341,0.65018c0.98648,-0.14797 1.89059,-0.54293 2.83984,-0.79883c-0.85129,0.91271 -1.772,1.76025 -2.78125,2.50391c-0.25621,0.18812 -0.40774,0.48683 -0.4082,0.80469v1.30078c0,6.24615 -2.39397,13.03137 -6.96094,18.21289c-4.56697,5.18152 -11.26531,8.78711 -20.03906,8.78711c-4.05273,0 -7.81944,-0.86492 -11.24219,-2.43555c4.21458,-0.32276 8.08289,-1.84763 11.25,-4.26953c0.23044,-0.17577 0.37334,-0.44284 0.3917,-0.73208c0.01836,-0.28924 -0.08962,-0.57224 -0.29599,-0.77573c-0.1922,-0.24757 -0.48934,-0.39072 -0.80273,-0.38672c-3.25913,0 -5.99023,-1.91486 -7.48828,-4.61914c0.06488,0.0017 0.12291,0.01953 0.1875,0.01953c0.97407,0 1.94864,-0.1063 2.84375,-0.33008c0.45075,-0.11186 0.76519,-0.51931 0.75913,-0.9837c-0.00606,-0.46439 -0.33101,-0.8635 -0.78452,-0.96357c-3.5891,-0.79758 -6.25576,-3.66011 -6.86328,-7.28516c1.02498,0.33682 2.07816,0.59107 3.18359,0.66016c0.45128,0.02807 0.86526,-0.25013 1.00975,-0.67858c0.14449,-0.42844 -0.01645,-0.90054 -0.39257,-1.1515c-2.4345,-1.623 -3.95508,-4.30247 -3.95508,-7.36914c0,-1.12725 0.27765,-2.1733 0.6543,-3.1543c5.03451,5.45107 12.05348,9.16738 19.89648,9.55469c0.03318,0.00165 0.06643,0.00165 0.09961,0c0.00065,0 0.0013,0 0.00195,0c0.32185,0.0154 0.6314,-0.12517 0.8316,-0.37765c0.2002,-0.25247 0.26652,-0.58593 0.17816,-0.89579c-0.17581,-0.61534 -0.26172,-1.20912 -0.26172,-1.92578c0,-4.85679 3.94204,-8.80078 8.79883,-8.80078z"></path></g></g>
</svg>